<svg xmlns="http://www.w3.org/2000/svg" viewBox="0 0 3967.82 1268.12">
  <g id="Layer_2" data-name="Layer 2">
    <g id="Layer_1-2" data-name="Layer 1">
      <g>
        <path d="M967,883.5a382,382,0,0,1-62.64-5.06c-112.41-18.7-207-88.6-273.54-202.15-47.18-80.52-78.49-168.23-108.76-253C439.23,191.22,367.72-9.2,16.78,5.8l-.2-4.51c161.8-6.89,275.28,31,357.24,119.15,72.95,78.5,111.58,186.71,152.47,301.29,30.2,84.62,61.43,172.12,108.4,252.28C700.53,786.36,794,855.51,905.08,874c135.39,22.52,295-31.88,426.95-145.53,232.87-200.52,417-292,579.18-287.65,145.43,3.83,256.69,84,374.49,168.85,51.85,37.36,105.47,76,163.81,109.36,230,131.54,422.58,43,608.84-42.7,98.52-45.31,191.56-88.1,287.57-98.05,218.34-22.69,421.12,121.28,600,248.3l21.15,15-2.61,3.68-21.15-15c-178.28-126.56-380.44-270-597-247.5-95.27,9.88-188,52.52-286.15,97.66-187.3,86.14-381,175.22-613,42.53-58.54-33.49-112.26-72.19-164.21-109.62C2046.3,442.74,1841.82,295.43,1335,731.87,1221.87,829.3,1088.46,883.5,967,883.5Z" fill="#ff7f00" stroke="#e83b1a" stroke-miterlimit="10"/>
        <path d="M968.84,918.52a392.15,392.15,0,0,1-60.57-4.62c-110.41-17.19-204.66-83.07-272.56-190.52-47.08-74.48-80.33-155.64-112.49-234.12C432.59,268.08,354.28,77.07,15.28,96.11L15.05,92C171.16,83.24,282.69,118,366,201.39c74.12,74.2,116.34,177.23,161,286.32C559.11,566,592.29,647,639.17,721.19,706.42,827.61,799.69,892.85,908.9,909.86c133.67,20.8,285.38-30.19,416.17-140,209.27-175.65,373.19-271.28,515.86-301,142.18-29.61,253,10.37,351.47,58,54.44,26.3,106.79,60.3,162.2,96.29,26.24,17.05,53.38,34.68,81.12,51.68,268.85,164.75,480.29,75.7,684.76-10.42,75.94-32,137.77-50.17,194.57-57.06C3516,583,3673.17,692,3825.2,797.4c39.2,27.17,79.74,55.28,119.7,80l-2.16,3.49c-40-24.75-80.63-52.89-119.88-80.09-151.38-105-307.91-213.53-507.32-189.32-56.41,6.85-117.89,24.88-193.47,56.76-121.26,51.08-245,103.18-381.66,103.19-94.86,0-195.94-25.09-306.83-93-27.79-17-54.95-34.67-81.21-51.73-55.31-35.92-107.54-69.85-161.75-96-97.87-47.27-207.87-87-348.85-57.63-142,29.54-305.33,124.9-514.06,300.09C1215.39,867.3,1087.66,918.52,968.84,918.52Z" fill="#e83b1a" stroke="#ff7f00" stroke-miterlimit="10"/>
        <path d="M968.59,953.35a392.52,392.52,0,0,1-56-3.94c-108.53-15.61-202.6-77.49-272-178.94C593.73,702,558.7,627.3,524.82,555.11c-94.57-201.54-183.94-391.92-511-368.68l-.27-3.68c150.52-10.68,260.06,20.94,344.78,99.5C433.65,352.14,479.56,450,528.16,553.54,562,625.6,596.94,700.12,643.66,768.38,712.49,869,805.68,930.3,913.17,945.76c129.9,18.67,277.48-30.31,404.93-134.42,212-173.14,365.73-270.51,498.56-315.69,117.94-40.13,223.91-40.3,354.31-.57,82.35,25.08,158.67,75.12,239.48,128.1l11.47,7.51c282,184.63,485.68,140.42,663.82,65.13,76.54-32.44,139.59-51.29,198.44-59.32,201.93-27.56,342.64,73.81,478.66,171.87,54.13,39,105.26,75.88,159.86,104.81l-1.73,3.26c-54.82-29.05-106.06-66-160.29-105.08-135.43-97.63-275.54-198.61-476-171.2-58.52,8-121.27,26.75-197.5,59.05-85.88,36.3-177.71,65.42-281.25,65.42-112.37,0-238.53-34.27-386-130.85l-11.47-7.51c-80.58-52.84-156.69-102.73-238.53-127.66-228.55-69.63-414-40.16-849.46,315.59C1210.16,904.28,1084.79,953.35,968.59,953.35Z" fill="#e83b1a" stroke="#ff7f00" stroke-miterlimit="10"/>
        <path d="M970.23,988.33a406.68,406.68,0,0,1-52.71-3.39c-106.78-14-200.84-71.83-272-167.4-46.61-62.6-83.23-130.82-118.65-196.81-102.53-191-199.31-371.4-514.59-344L12,273.48C156.83,260.85,264.5,289.31,350.75,363c76.7,65.54,126.39,158.13,179,256.15,35.36,65.88,71.92,134,118.4,196.4,70.62,94.84,163.92,152.28,269.79,166.1,127.82,16.7,267.46-29.07,393.19-128.89,401.8-319,588.9-425.74,838.47-389.46,95.57,13.9,180.11,68.48,258.51,123.2C2673.2,771.53,2853.45,811,3051,727.2c76.25-32.46,142.43-52.61,202.31-61.59,209.31-31.41,340.53,69,467.4,166.06,60,45.92,116.69,89.3,179.79,117.34l-1.33,3c-63.45-28.2-120.29-71.69-180.46-117.73-126.32-96.67-256.93-196.63-464.91-165.43-59.61,8.95-125.52,29-201.52,61.36-65.68,27.86-129.46,42.19-195,42.2-132.79,0-272.85-58.82-451.07-183.19-78.07-54.5-162.24-108.85-257.1-122.64-248.38-36.11-435,70.46-836,388.78C1203.81,942.18,1083.91,988.33,970.23,988.33Z" fill="#e83b1a" stroke="#ff7f00" stroke-miterlimit="10"/>
        <path d="M970.36,1023.19c-3,0-5.89,0-8.84-.09-121.06-2.5-228.63-57.3-311.11-158.49-46.27-56.77-84.27-118.67-121-178.54C418.62,505.66,314,335.27,10.76,367.06l-.3-2.85c305-32,410.12,139.16,521.37,320.36,36.71,59.78,74.66,121.6,120.81,178.22,162.2,199,417.93,211.36,651.52,31.45q46.39-35.73,88.83-68.61c332.11-256.93,498.81-385.89,735.25-394,92.72-3.19,173.41,42,266.05,110.72,239.08,177.46,411.82,305.68,622,216.23,77.17-33,144.62-53.87,206.2-63.86,219.7-35.64,350.33,71.35,465.59,165.74,62.51,51.2,121.56,99.56,190.28,124.39l-1,2.71c-69.18-25-128.41-73.52-191.13-124.88-120.38-98.6-244.83-200.55-463.3-165.13-61.35,10-128.58,30.78-205.53,63.67-96.59,41.11-191.41,39-298.4-6.66-102.61-43.78-211.33-124.48-326.42-209.91-92.16-68.4-172.26-113.26-264.24-110.16-235.51,8.09-402,136.86-733.59,393.41q-42.51,32.88-88.84,68.62C1198.17,979.5,1082.34,1023.19,970.36,1023.19Z" fill="#e83b1a" stroke="#ff7f00" stroke-miterlimit="10"/>
        <path d="M970.62,1058.09c-3.58,0-7.14,0-10.72-.13-115.93-2.91-221.26-53.5-304.6-146.3-45.84-51-85-106.76-122.91-160.63C413.08,581.37,300.39,421.12,9.25,457.37L9,454.93C301.55,418.5,414.66,579.34,534.4,749.61c37.85,53.81,77,109.46,122.73,160.4,166.88,185.83,412.13,195.68,640.06,25.69C1412.07,850,1507.05,770.31,1590.85,700,1782,539.55,1920.16,423.63,2107.06,400c112.9-14.32,201.57,41.62,273.39,98.21,43.91,34.6,84.72,69,124.19,102.25,173,145.79,309.71,261,476.89,189.55,78.19-33.55,146.91-55.17,210.09-66.13,231.82-40.17,357.78,70.6,468.91,168.36,63.21,55.6,122.9,108.11,195.67,128.53l-.67,2.37c-73.3-20.57-133.2-73.27-196.62-129.05-110.72-97.39-236.2-207.76-466.87-167.78-63,10.92-131.53,32.49-209.54,66-35.47,15.15-69.56,22-102.88,22-125.06,0-239.42-96.37-376.56-211.92C2463.6,569,2422.8,534.66,2378.93,500.1c-101.25-79.78-182.46-109-271.55-97.71C1921.19,426,1783.29,541.7,1592.43,701.87c-83.82,70.34-178.83,150.07-293.78,235.8C1192.84,1016.59,1079.66,1058.09,970.62,1058.09Z" fill="#e83b1a" stroke="#ff7f00" stroke-miterlimit="10"/>
        <path d="M970.71,1093q-6.3,0-12.56-.18c-110.64-3.25-213.68-49.64-298-134.13-45.37-45.49-85.53-95.19-124.36-143.26C407.66,656.78,286.58,506.94,7.73,547.69l-.3-2c280-40.94,401.44,109.36,530,268.5,38.79,48,78.91,97.68,124.21,143.09,169.27,169.7,410.13,177.32,628.56,19.91,145.34-104.74,257.32-212.21,356.11-307,151.87-145.77,271.83-260.9,439.6-301.84,95.3-23.24,181.88,3.18,280.7,85.69,64.7,54,121.6,112.06,176.62,168.17,69.4,70.78,134.94,137.63,199.93,177.29,71.71,43.75,136.41,50.72,203.64,21.9,79.32-34.14,149.31-56.51,214-68.38,245.08-45,367.39,70.67,475.29,172.75,62.82,59.44,122.15,115.57,198,130.89l-.41,2c-76.43-15.44-136-71.77-199-131.41C3527.11,825.45,3405.21,710.12,3161.15,755c-64.52,11.85-134.37,34.18-213.54,68.26-67.89,29.09-133.19,22.09-205.52-22-65.2-39.79-130.84-106.73-200.32-177.6-55-56.08-111.86-114.07-176.48-168C2267,373.49,2181,347.2,2086.39,370.28c-167.23,40.8-287,155.77-438.66,301.32-98.84,94.88-210.87,202.4-356.33,307.22C1187.51,1053.68,1076.92,1093,970.71,1093Z" fill="#e83b1a" stroke="#ff7f00" stroke-miterlimit="10"/>
        <path d="M971.32,1128q-7.55,0-15.08-.25c-105.11-3.52-205.8-45.71-291.18-122-44.9-40.12-85.86-84.07-125.48-126.56C402.21,731.79,272.43,592.6,6.2,638l-.27-1.61C273,590.82,403.1,730.34,540.78,878c39.59,42.47,80.53,86.39,125.37,126.46,177.15,158.29,402.06,163.44,617.07,14.12C1439.65,910,1556.67,779.85,1659.93,665c131.36-146.08,244.8-272.24,404.88-328.41,54.41-19.1,105.36-21.06,155.72-6,43.33,12.95,86.58,38.85,132.22,79.18,75.17,66.41,138.54,145.18,199.82,221.35,120.67,150,224.88,279.52,359.49,221.58,80.48-34.75,151.75-57.87,217.88-70.66,115.57-22.34,213.69-12.3,300,30.68,75.51,37.62,130.47,93.56,183.63,147.67,61.77,62.87,120.11,122.25,198.43,132.08l-.2,1.63c-78.89-9.91-137.43-69.49-199.4-132.56-104.92-106.79-223.83-227.82-482.13-177.89-66,12.77-137.17,35.85-217.54,70.56-22.74,9.78-44.62,14.28-65.83,14.29-105.44,0-194.78-111.06-295.58-236.35C2490.06,556,2426.73,477.33,2351.67,411c-97.11-85.79-185.4-108.26-286.32-72.84-159.68,56-273,182.05-404.2,328C1557.83,781,1440.74,911.23,1284.15,1020,1180.89,1091.68,1075.72,1128,971.32,1128Z" fill="#e83b1a" stroke="#ff7f00" stroke-miterlimit="10"/>
        <path d="M971,1163q-8.43,0-16.84-.32c-100.67-3.75-196.31-40.72-284.27-109.91-44.54-35-86.26-73.57-126.62-110.84C396.5,806.31,257.84,678.25,4.67,728.32l-.24-1.21C258.24,676.93,397.11,805.19,544.14,941c40.34,37.25,82,75.77,126.54,110.77,182.9,143.86,398,146.81,605.55,8.33,157.82-105.29,269.76-248.89,378-387.75C1773,520,1885.15,376.14,2043.76,304.94c57.12-25.65,109.94-31.79,161.51-18.77,44.8,11.31,88.51,37.29,133.62,79.4,80.76,75.41,146.34,174,209.75,269.41,108.39,163,202,303.82,328.69,249.11,81.73-35.41,154.28-59.26,221.78-72.93,122-24.7,223.91-14.76,311.58,30.34C3487.2,880.86,3543,942,3592.31,995.92c62.91,68.87,117.24,128.34,197.61,132.46l-.06,1.23c-80.88-4.14-135.37-63.79-198.46-132.86-102.62-112.34-219-239.67-492.05-184.38-67.41,13.65-139.88,37.47-221.53,72.85-127.6,55.13-221.51-86.07-330.21-249.56-63.37-95.32-128.9-193.88-209.56-269.19-94.89-88.59-188.24-107.78-293.79-60.41-158.33,71.08-270.4,214.84-389,367-108.31,138.94-220.31,282.61-378.3,388C1175.54,1128.74,1072.72,1163,971,1163Z" fill="#e83b1a" stroke="#ff7f00" stroke-miterlimit="10"/>
        <path d="M970.44,1198q-9.23,0-18.43-.37c-94.23-3.81-187.5-36.74-277.24-97.89-44.47-30.29-87.1-63.87-128.32-96.35C390.13,880.22,242.46,763.91,3.12,818.64l-.18-.8c57.69-13.19,111.44-16.94,164.33-11.42,47.28,4.92,92.88,17.18,139.43,37.49C393.33,881.71,468,940.49,547,1002.73c41.21,32.46,83.82,66,128.27,96.32,191.94,130.77,391.79,131.62,594,2.51,154-98.35,263.41-258.76,369.19-413.9,55.12-80.85,112.13-164.45,174-236.57,69.29-80.74,138.08-138.91,210.3-177.84C2082.5,241,2137.21,230.73,2190,241.72c46.25,9.64,90.41,35.68,135,79.64,83.72,82.51,149.24,200.63,212.6,314.87,48.9,88.17,95.09,171.45,144,225.72,54.5,60.49,105.66,77.51,161,53.52,81.88-35.57,157.81-60.88,225.69-75.2,128.61-27.14,234.5-17.29,323.7,30.11,77.65,41.26,132,105.23,179.95,161.67,60.24,70.9,112.38,132.26,192.58,132.26,1.13,0,2.25,0,3.38,0l0,.82-3.4,0c-80.58,0-132.83-61.49-193.2-132.55-95.53-112.44-214.44-252.36-502.86-191.5-67.83,14.31-143.71,39.59-225.53,75.14-29.4,12.75-57.34,13.87-85.43,3.43-25.27-9.39-50.29-28.08-76.48-57.15-49-54.34-95.18-137.66-144.11-225.87-63.33-114.19-128.82-232.26-212.46-314.69-94.15-92.78-189.89-108-301.31-48-160.7,86.62-269.18,245.71-384,414.15-105.82,155.2-215.26,315.69-369.42,414.13C1170.11,1165.82,1069.54,1198,970.44,1198Z" fill="#e83b1a" stroke="#ff7f00" stroke-miterlimit="10"/>
        <path d="M0,999.28c463.21-141,729,488.37,1255.22,185.23,283.07-163.15,387.83-738.58,725.57-974.68,479.57-335.21,521.75,886.61,792.33,768.4,767.32-335.21,703,297.65,950.8,257.85" fill="none"/>
      </g>
    </g>
  </g>
</svg>
