<svg xmlns="http://www.w3.org/2000/svg" viewBox="0 0 585.51 267.37">
  <g style="isolation: isolate">
    <g id="Layer_2" data-name="Layer 2">
      <g id="Layer_1-2" data-name="Layer 1">
        <g>
          <g>
            <g>
              <path d="M2,50.07c140.67-31.25,437.34,289.79,545.2,107.7C442,375.5,130.42,45.44,6.72,134.76Q3.84,90.89,2,50.07Z" fill="#282828"/>
              <path d="M2,50.07c140.67-31.25,437.34,289.79,545.2,107.7C440.69,357.28,136.76,31.7,4,90.68Q2.89,70,2,50.07Z" fill="#282828"/>
            </g>
            <g>
              <path d="M579.34,42.33q3.6,44.86,6.17,86.66c-36.44,153.42-135.38,145.65-251,89.33C456.07,266.77,556.37,253.29,579.34,42.33Z" fill="#282828"/>
              <g opacity="0.9">
                <path d="M579.34,42.33q1.9,23.67,3.51,46.48c-30.36,179.9-130,182-248.35,129.51C456.07,266.77,556.37,253.29,579.34,42.33Z" fill="#282828"/>
              </g>
            </g>
            <g>
              <path d="M7.26,142.72c73.47-40.58,197.6,25.07,320.13,74C202.94,181.89,78,132.39,11.68,202.47Q9.22,171.89,7.26,142.72Z" fill="#282828"/>
              <g opacity="0.6">
                <path d="M7.26,142.72c73.47-40.58,197.6,25.07,320.13,74-123.41-42.23-248-100.4-318.15-46Q8.19,156.58,7.26,142.72Z" fill="#282828"/>
              </g>
            </g>
            <g>
              <path d="M0,0C85.4,13.23,206.29,104.19,322.29,172.13,205,115.49,83,34.45,1.6,41.72Q.67,20.47,0,0Z" fill="#282828"/>
              <path d="M.73,20.58C84.2,23.73,205.66,109.8,322.29,172.13,205,115.49,83,34.45,1.6,41.72Q1.14,31.06.73,20.58Z" fill="#282828"/>
            </g>
          </g>
          <g style="mix-blend-mode: overlay">
            <g>
              <path d="M2,62.05c140.67-31.25,437.34,289.79,545.2,107.7C442,387.48,130.42,57.42,6.72,146.74Q3.84,102.86,2,62.05Z" fill="#282828"/>
              <path d="M2,62.05c140.67-31.25,437.34,289.79,545.2,107.7C440.69,369.26,136.76,43.68,4,102.66Q2.89,82,2,62.05Z" fill="#282828"/>
            </g>
            <g>
              <path d="M579.34,54.31q3.6,44.86,6.17,86.66c-36.44,153.42-135.38,145.65-251,89.32C456.07,278.75,556.37,265.27,579.34,54.31Z" fill="#282828"/>
              <g opacity="0.9">
                <path d="M579.34,54.31q1.9,23.67,3.51,46.48c-30.36,179.9-130,182-248.35,129.5C456.07,278.75,556.37,265.27,579.34,54.31Z" fill="#282828"/>
              </g>
            </g>
            <g>
              <path d="M7.26,154.7c73.47-40.59,197.6,25.07,320.13,74C202.94,193.87,78,144.37,11.68,214.45Q9.22,183.87,7.26,154.7Z" fill="#282828"/>
              <g opacity="0.6">
                <path d="M7.26,154.7c73.47-40.59,197.6,25.07,320.13,74-123.41-42.23-248-100.4-318.15-46Q8.19,168.56,7.26,154.7Z" fill="#282828"/>
              </g>
            </g>
            <g>
              <path d="M0,12C85.4,25.21,206.29,116.17,322.29,184.1,205,127.46,83,46.43,1.6,53.7Q.67,32.45,0,12Z" fill="#282828"/>
              <path d="M.73,32.56C84.2,35.71,205.66,121.78,322.29,184.1,205,127.46,83,46.43,1.6,53.7Q1.14,43,.73,32.56Z" fill="#282828"/>
            </g>
          </g>
        </g>
      </g>
    </g>
  </g>
</svg>
